P3
# Created by GIMP version 2.10.4 PNM plug-in
30 15
255
205
232
247
205
232
247
205
232
247
255
255
255
255
255
255
255
255
255
255
255
255
255
255
255
255
255
255
255
255
255
255
255
255
255
255
255
255
255
255
255
255
255
205
232
247
205
232
247
205
232
247
205
232
247
205
232
247
205
232
247
205
232
247
205
232
247
205
232
247
205
232
247
205
232
247
205
232
247
205
232
247
205
232
247
205
232
247
255
255
255
205
232
247
205
232
247
205
232
247
255
255
255
255
255
255
255
255
255
0
0
0
255
255
255
255
255
255
255
255
255
255
255
255
255
255
255
255
255
255
255
255
255
255
255
255
205
232
247
205
232
247
205
232
247
205
232
247
205
232
247
205
232
247
205
232
247
205
232
247
205
232
247
205
232
247
205
232
247
205
232
247
255
255
255
255
255
255
255
255
255
205
232
247
205
232
247
205
232
247
255
255
255
255
255
255
255
255
255
205
232
247
255
255
255
255
255
255
255
255
255
255
255
255
255
255
255
255
255
255
255
255
255
255
255
255
0
0
0
205
232
247
205
232
247
205
232
247
205
232
247
205
232
247
205
232
247
205
232
247
205
232
247
205
232
247
205
232
247
255
255
255
255
255
255
255
255
255
255
255
255
205
232
247
205
232
247
205
232
247
255
255
255
255
255
255
255
255
255
205
232
247
205
232
247
255
255
255
255
255
255
255
255
255
255
255
255
255
255
255
255
255
255
255
255
255
255
255
255
205
232
247
205
232
247
205
232
247
205
232
247
205
232
247
205
232
247
205
232
247
205
232
247
205
232
247
255
255
255
255
255
255
255
255
255
255
255
255
255
255
255
205
232
247
205
232
247
205
232
247
255
255
255
255
255
255
255
255
255
205
232
247
205
232
247
255
255
255
255
255
255
255
255
255
255
255
255
255
255
255
255
255
255
255
255
255
255
255
255
205
232
247
205
232
247
205
232
247
205
232
247
205
232
247
205
232
247
205
232
247
205
232
247
255
255
255
255
255
255
255
255
255
255
255
255
255
255
255
255
255
255
205
232
247
205
232
247
205
232
247
255
255
255
255
255
255
255
255
255
205
232
247
205
232
247
255
255
255
255
255
255
255
255
255
255
255
255
255
255
255
255
255
255
255
255
255
255
255
255
205
232
247
205
232
247
205
232
247
205
232
247
205
232
247
205
232
247
205
232
247
205
232
247
255
255
255
255
255
255
255
255
255
255
255
255
255
255
255
255
255
255
205
232
247
205
232
247
205
232
247
205
232
247
205
232
247
0
0
0
205
232
247
255
255
255
255
255
255
255
255
255
255
255
255
255
255
255
255
255
255
255
255
255
255
255
255
205
232
247
205
232
247
205
232
247
205
232
247
205
232
247
205
232
247
205
232
247
205
232
247
205
232
247
255
255
255
255
255
255
255
255
255
255
255
255
255
255
255
255
255
255
205
232
247
205
232
247
205
232
247
205
232
247
205
232
247
205
232
247
205
232
247
255
255
255
255
255
255
255
255
255
255
255
255
255
255
255
255
255
255
255
255
255
0
0
0
205
232
247
205
232
247
205
232
247
205
232
247
205
232
247
205
232
247
205
232
247
205
232
247
205
232
247
255
255
255
255
255
255
255
255
255
255
255
255
255
255
255
255
255
255
205
232
247
205
232
247
205
232
247
205
232
247
205
232
247
205
232
247
205
232
247
205
232
247
255
255
255
255
255
255
255
255
255
255
255
255
255
255
255
255
255
255
205
232
247
205
232
247
205
232
247
205
232
247
205
232
247
205
232
247
205
232
247
205
232
247
205
232
247
0
0
0
255
255
255
255
255
255
205
232
247
205
232
247
205
232
247
205
232
247
205
232
247
205
232
247
205
232
247
205
232
247
205
232
247
205
232
247
205
232
247
205
232
247
205
232
247
205
232
247
205
232
247
205
232
247
205
232
247
205
232
247
205
232
247
205
232
247
205
232
247
205
232
247
205
232
247
205
232
247
205
232
247
205
232
247
205
232
247
205
232
247
205
232
247
205
232
247
205
232
247
205
232
247
205
232
247
205
232
247
205
232
247
205
232
247
205
232
247
205
232
247
205
232
247
205
232
247
205
232
247
205
232
247
205
232
247
205
232
247
205
232
247
205
232
247
205
232
247
205
232
247
205
232
247
205
232
247
205
232
247
205
232
247
205
232
247
205
232
247
205
232
247
205
232
247
205
232
247
205
232
247
205
232
247
205
232
247
205
232
247
205
232
247
205
232
247
205
232
247
205
232
247
205
232
247
205
232
247
205
232
247
205
232
247
205
232
247
205
232
247
205
232
247
205
232
247
205
232
247
205
232
247
205
232
247
205
232
247
205
232
247
205
232
247
205
232
247
205
232
247
205
232
247
205
232
247
205
232
247
205
232
247
205
232
247
205
232
247
205
232
247
205
232
247
205
232
247
205
232
247
205
232
247
205
232
247
205
232
247
205
232
247
205
232
247
205
232
247
205
232
247
205
232
247
205
232
247
205
232
247
205
232
247
205
232
247
205
232
247
205
232
247
205
232
247
205
232
247
205
232
247
205
232
247
205
232
247
205
232
247
255
255
255
255
255
255
255
255
255
0
0
0
205
232
247
205
232
247
205
232
247
205
232
247
205
232
247
205
232
247
205
232
247
205
232
247
205
232
247
205
232
247
205
232
247
205
232
247
205
232
247
205
232
247
255
255
255
255
255
255
255
255
255
255
255
255
255
255
255
0
0
0
205
232
247
255
255
255
255
255
255
205
232
247
205
232
247
255
255
255
255
255
255
255
255
255
255
255
255
255
255
255
255
255
255
205
232
247
205
232
247
205
232
247
205
232
247
205
232
247
205
232
247
205
232
247
205
232
247
205
232
247
205
232
247
205
232
247
205
232
247
255
255
255
255
255
255
255
255
255
255
255
255
255
255
255
255
255
255
255
255
255
205
232
247
255
255
255
255
255
255
255
255
255
255
255
255
255
255
255
255
255
255
255
255
255
255
255
255
255
255
255
255
255
255
255
255
255
205
232
247
205
232
247
205
232
247
205
232
247
205
232
247
205
232
247
205
232
247
